# xmcd CD database file
#
# Track frame offsets:
#	150
#	23265
#	43920
#	56820
#
# Disc length: 929 seconds
#
# Revision: 0
# Processed by: cddbd v1.5.2PL0 Copyright (c) Steve Scherf et al.
# Submitted via: CD2WAV32(JP) R3.22
#
DISCID=2b039f04
DTITLE=ガガガSP - 神戸駅
DYEAR=2007
DGENRE=JPop
TTITLE0=神戸駅
TTITLE1=遠距離恋愛
TTITLE2=真面目王
TTITLE3=My First Kiss
EXTD=
EXTT0=
EXTT1=
EXTT2=
EXTT3=
PLAYORDER=
